<svg xmlns="http://www.w3.org/2000/svg" viewBox="0 0 512 512"><defs><linearGradient id="bg" x1="0" y1="0" x2="0" y2="1"><stop offset="0%" stop-color="#1E1830"/><stop offset="100%" stop-color="#14102A"/></linearGradient><linearGradient id="stem" x1="0" y1="0" x2="0" y2="1"><stop offset="0%" stop-color="#F5C87A"/><stop offset="45%" stop-color="#E8A84A"/><stop offset="100%" stop-color="#C47D35"/></linearGradient><linearGradient id="bar" x1="0" y1="0" x2="1" y2="0"><stop offset="0%" stop-color="#D4B483"/><stop offset="50%" stop-color="#E8C99B"/><stop offset="100%" stop-color="#D4B483"/></linearGradient><radialGradient id="halo" cx="50%" cy="40%" r="50%"><stop offset="0%" stop-color="#F5D98A" stop-opacity="0.2"/><stop offset="100%" stop-color="#F5D98A" stop-opacity="0"/></radialGradient><filter id="og" x="-100%" y="-100%" width="300%" height="300%"><feGaussianBlur stdDeviation="18" result="b"/><feMerge><feMergeNode in="b"/><feMergeNode in="SourceGraphic"/></feMerge></filter><filter id="mg" x="-80%" y="-80%" width="260%" height="260%"><feGaussianBlur stdDeviation="10" result="b"/><feMerge><feMergeNode in="b"/><feMergeNode in="SourceGraphic"/></feMerge></filter><filter id="ig" x="-50%" y="-50%" width="200%" height="200%"><feGaussianBlur stdDeviation="4" result="b"/><feMerge><feMergeNode in="b"/><feMergeNode in="SourceGraphic"/></feMerge></filter><filter id="bglow" x="-20%" y="-20%" width="140%" height="140%"><feGaussianBlur stdDeviation="12" result="b"/><feMerge><feMergeNode in="b"/><feMergeNode in="SourceGraphic"/></feMerge></filter></defs><rect width="512" height="512" fill="none"/><rect x="24" y="24" width="464" height="464" rx="72" ry="72" fill="url(#bg)"/><rect x="24" y="24" width="464" height="464" rx="72" ry="72" fill="none" stroke="#2A2050" stroke-width="1.5" opacity="0.6"/><rect x="40" y="40" width="432" height="432" rx="60" ry="60" fill="none" stroke="#F5C87A" stroke-width="0.6" opacity="0.08"/><ellipse cx="256" cy="220" rx="165" ry="155" fill="url(#halo)"/><circle cx="148" cy="148" r="72" fill="none" stroke="#E8C99B" stroke-width="0.6" opacity="0.07"/><circle cx="364" cy="148" r="56" fill="none" stroke="#F5C87A" stroke-width="0.6" opacity="0.06"/><circle cx="128" cy="310" r="48" fill="none" stroke="#D4B483" stroke-width="0.6" opacity="0.06"/><circle cx="384" cy="310" r="64" fill="none" stroke="#E8C99B" stroke-width="0.6" opacity="0.05"/><path d="M132,260C160,230 210,210 256,210C302,210 352,230 380,260" fill="none" stroke="#F5C87A" stroke-width="14" stroke-linecap="round" opacity="0.18" filter="url(#og)"/><path d="M128,260C156,230 210,210 256,210C302,210 356,230 384,260" fill="none" stroke="#E8C99B" stroke-width="18" stroke-linecap="round" opacity="0.28" filter="url(#mg)"/><path d="M124,260C152,230 210,210 256,210C302,210 360,230 388,260" fill="none" stroke="#D4B483" stroke-width="26" stroke-linecap="round" opacity="0.95"/><path d="M124,260C152,230 210,210 256,210C302,210 360,230 388,260" fill="none" stroke="#F5C87A" stroke-width="6" stroke-linecap="round" opacity="0.5"/><rect x="244" y="212" width="24" height="250" fill="#C47D35" opacity="0.95"/><rect x="244" y="212" width="24" height="250" fill="none" stroke="#F5C87A" stroke-width="2" opacity="0.4"/><rect x="244" y="212" width="24" height="80" fill="#F5C87A" opacity="0.2" filter="url(#ig)"/><circle cx="180" cy="188" r="3" fill="#F5C87A" opacity="0.72" filter="url(#mg)"/><circle cx="332" cy="172" r="2.5" fill="#E8C99B" opacity="0.68" filter="url(#mg)"/><circle cx="372" cy="308" r="2.5" fill="#D4B483" opacity="0.62" filter="url(#mg)"/><circle cx="140" cy="308" r="2" fill="#E8C99B" opacity="0.58" filter="url(#mg)"/><circle cx="200" cy="150" r="1.5" fill="#F5C87A" opacity="0.48"/><circle cx="312" cy="145" r="1.5" fill="#D4B483" opacity="0.42"/><circle cx="350" cy="380" r="1.5" fill="#F5C87A" opacity="0.38"/><circle cx="162" cy="380" r="1.5" fill="#E8C99B" opacity="0.38"/><circle cx="420" cy="210" r="2" fill="#D4B483" opacity="0.28"/><circle cx="92" cy="210" r="2" fill="#E8C99B" opacity="0.28"/></svg>