<svg xmlns="http://www.w3.org/2000/svg" viewBox="0 0 512 512"><defs><radialGradient id="bg" cx="50%" cy="50%" r="70%"><stop offset="0%" stop-color="#1a1040"/><stop offset="100%" stop-color="#0a0818"/></radialGradient><linearGradient id="fl" x1="0" y1="1" x2="0" y2="0"><stop offset="0%" stop-color="#ff6b35"/><stop offset="30%" stop-color="#f72585"/><stop offset="60%" stop-color="#9b5de5"/><stop offset="100%" stop-color="#4361ee"/></linearGradient><linearGradient id="tg" x1="0" y1="0" x2="1" y2="0"><stop offset="0%" stop-color="#4361ee"/><stop offset="50%" stop-color="#7b2ff7"/><stop offset="100%" stop-color="#4361ee"/></linearGradient><radialGradient id="ir" cx="50%" cy="50%" r="50%"><stop offset="0%" stop-color="#c084fc"/><stop offset="55%" stop-color="#7b2ff7"/><stop offset="100%" stop-color="#1e3a8a"/></radialGradient><filter id="g" x="-60%" y="-60%" width="220%" height="220%"><feGaussianBlur stdDeviation="7" result="b"/><feMerge><feMergeNode in="b"/><feMergeNode in="SourceGraphic"/></feMerge></filter><filter id="eg" x="-50%" y="-50%" width="200%" height="200%"><feGaussianBlur stdDeviation="3" result="b"/><feMerge><feMergeNode in="b"/><feMergeNode in="SourceGraphic"/></feMerge></filter></defs><rect width="512" height="512" fill="url(#bg)" rx="80"/><circle cx="256" cy="256" r="208" fill="none" stroke="#7b2ff7" stroke-width="0.8" opacity="0.12"/><circle cx="256" cy="256" r="188" fill="none" stroke="#4361ee" stroke-width="0.5" opacity="0.1"/><path d="M256,158C232,215 198,265 185,318C172,370 182,420 195,458C200,473 208,483 218,488L294,488C304,483 312,473 317,458C330,420 340,370 327,318C314,265 280,215 256,158Z" fill="url(#fl)" opacity="0.25" filter="url(#g)"/><path d="M256,185C238,235 212,278 202,325C192,372 200,415 212,450C218,466 226,476 234,482L278,482C286,476 294,466 300,450C312,415 320,372 310,325C300,278 274,235 256,185Z" fill="url(#fl)" opacity="0.5" filter="url(#g)"/><path d="M256,215C244,255 226,290 218,328C210,366 216,408 228,442C233,456 240,466 246,472L266,472C272,466 279,456 284,442C296,408 302,366 294,328C286,290 268,255 256,215Z" fill="url(#fl)" opacity="0.82" filter="url(#g)"/><path d="M52,168C80,192 160,210 256,210C352,210 432,192 460,168" fill="none" stroke="url(#tg)" stroke-width="20" stroke-linecap="round" opacity="0.4" filter="url(#g)"/><path d="M46,166C72,198 160,224 256,224C352,224 440,198 466,166" fill="none" stroke="url(#tg)" stroke-width="28" stroke-linecap="round" opacity="0.75"/><path d="M52,168C42,175 36,185 38,196C40,207 48,212 56,210C48,202 46,192 52,168Z" fill="#ff6b35" opacity="0.7"/><path d="M460,168C470,175 476,185 474,196C472,207 464,212 456,210C464,202 466,192 460,168Z" fill="#ff6b35" opacity="0.7"/><ellipse cx="256" cy="196" rx="36" ry="24" fill="#0e0820"/><ellipse cx="256" cy="194" rx="32" ry="22" fill="#f0eeff"/><ellipse cx="256" cy="194" rx="20" ry="20" fill="url(#ir)" filter="url(#eg)"/><ellipse cx="256" cy="194" rx="8" ry="8" fill="#0a0818"/><ellipse cx="250" cy="188" rx="3.5" ry="2.8" fill="white" opacity="0.92"/><ellipse cx="261" cy="199" rx="1.8" ry="1.4" fill="white" opacity="0.45"/><ellipse cx="256" cy="194" rx="32" ry="22" fill="none" stroke="#7b2ff7" stroke-width="1.2" opacity="0.55"/><circle cx="186" cy="165" r="2.5" fill="#f72585" opacity="0.65" filter="url(#g)"/><circle cx="326" cy="148" r="2" fill="#ff6b35" opacity="0.6" filter="url(#g)"/><circle cx="362" cy="308" r="2" fill="#9b5de5" opacity="0.5" filter="url(#g)"/><circle cx="150" cy="308" r="2" fill="#4361ee" opacity="0.55" filter="url(#g)"/><circle cx="315" cy="365" r="1.5" fill="#ff6b35" opacity="0.4"/><circle cx="198" cy="365" r="1.5" fill="#4361ee" opacity="0.4"/></svg>